# xmcd
#
# Track frame offsets: 
#        150
#        16309
#        32403
#        49854
#        64796
#        82688
#        98850
#        116591
#        130686
#        147222
#
# Disc length: 2155 seconds
#
# Revision: 0
# Processed by: cddbd v1.5.2PL0 Copyright (c) Steve Scherf et al.
# Submitted via: ExactAudioCopy v0.95b4
#
DISCID=7608690a
DTITLE=วงไฮโร - หมีแพนด้า
DYEAR=2007
DGENRE=Country
TTITLE0=หมีแพนด้า
TTITLE1=มันไม่ใช่
TTITLE2=กูขอร้อง
TTITLE3=ผมเปลี่ยนสี
TTITLE4=เดอะเดี่ยงด่าง
TTITLE5=เต่าหาย
TTITLE6=ทางเป็นโสก
TTITLE7=ตำเมี่ยงข่า
TTITLE8=จักรยานโซ่ยาน
TTITLE9=มดแดง
EXTD=
EXTT0=
EXTT1=
EXTT2=
EXTT3=
EXTT4=
EXTT5=
EXTT6=
EXTT7=
EXTT8=
EXTT9=
PLAYORDER=
